<svg width="275" height="286" viewBox="0 0 275 286" fill="none" xmlns="http://www.w3.org/2000/svg">
<path d="M95.0878 161.722L91.42 174.617L17.6447 185.576L20.3193 172.828L95.0878 161.722ZM87.9827 186.407L83.8041 199.661L21.1199 208.972L23.7535 195.948L87.9827 186.407ZM104.951 129.407L98.9256 149.59C97.3011 148.779 95.3503 147.922 93.0732 147.019C90.8274 146.075 88.2989 145.379 85.4878 144.931C82.7081 144.442 79.6996 144.438 76.4624 144.918C71.349 145.678 67.0891 147.627 63.6826 150.764C60.2761 153.902 57.9287 158.349 56.6406 164.105C55.3893 169.855 55.3974 176.998 56.6651 185.532C57.9437 194.14 60.0146 200.995 62.8779 206.097C65.7725 211.156 69.3028 214.674 73.4688 216.649C77.6294 218.588 82.2664 219.177 87.3797 218.418C90.6169 217.937 93.497 217.077 96.0199 215.837C98.5429 214.598 100.71 213.242 102.522 211.77C104.37 210.292 105.901 208.955 107.115 207.76L118.857 225.304C115.339 229.21 111.167 232.386 106.342 234.833C101.512 237.242 96.2453 238.87 90.5434 239.717C80.9053 241.149 72.0321 240.136 63.9237 236.678C55.8466 233.178 49.0719 227.435 43.5996 219.45C38.1219 211.428 34.476 201.311 32.6619 189.098C30.8533 176.921 31.401 166.181 34.3052 156.876C37.2093 147.572 42.0169 140.071 48.728 134.375C55.4703 128.636 63.6606 125.051 73.2986 123.619C79.2213 122.739 84.8336 122.808 90.1356 123.825C95.4376 124.842 100.376 126.703 104.951 129.407Z" fill="#301902"/>
<path d="M140.735 63.4091C135.705 63.5 131.659 62.6819 128.599 60.9546C125.538 59.2273 123.311 56.9849 121.917 54.2273C120.523 51.4394 119.826 48.5 119.826 45.4091C119.826 42.3182 120.508 39.5 121.872 36.9546C123.205 34.3788 125.311 31.4394 128.19 28.1364C130.129 25.894 131.493 24.1061 132.281 22.7728C133.069 21.4091 133.462 19.9243 133.462 18.3182C133.462 15.7122 132.523 13.6516 130.644 12.1364C128.735 10.6213 125.978 9.89398 122.372 9.95459L122.372 0.136403C127.402 0.0454955 131.447 0.863677 134.508 2.59095C137.569 4.28792 139.796 6.53034 141.19 9.31822C142.584 12.1061 143.281 15.0455 143.281 18.1364C143.281 21.2273 142.614 24.0455 141.281 26.5909C139.917 29.1364 137.796 32.0758 134.917 35.4091C132.978 37.6213 131.614 39.4091 130.826 40.7728C130.038 42.1364 129.644 43.6213 129.644 45.2273C129.644 47.6819 130.508 49.7122 132.235 51.3182C133.932 52.894 136.766 53.6516 140.735 53.5909L140.735 63.4091Z" fill="#301902"/>
<path d="M186.735 63.4091C181.705 63.5 177.659 62.6819 174.599 60.9546C171.538 59.2273 169.311 56.9849 167.917 54.2273C166.523 51.4394 165.826 48.5 165.826 45.4091C165.826 42.3182 166.508 39.5 167.872 36.9546C169.205 34.3788 171.311 31.4394 174.19 28.1364C176.129 25.894 177.493 24.1061 178.281 22.7728C179.069 21.4091 179.462 19.9243 179.462 18.3182C179.462 15.7122 178.523 13.6516 176.644 12.1364C174.735 10.6213 171.978 9.89398 168.372 9.95459L168.372 0.136403C173.402 0.0454955 177.447 0.863677 180.508 2.59095C183.569 4.28792 185.796 6.53034 187.19 9.31822C188.584 12.1061 189.281 15.0455 189.281 18.1364C189.281 21.2273 188.614 24.0455 187.281 26.5909C185.917 29.1364 183.796 32.0758 180.917 35.4091C178.978 37.6213 177.614 39.4091 176.826 40.7728C176.038 42.1364 175.644 43.6213 175.644 45.2273C175.644 47.6819 176.508 49.7122 178.235 51.3182C179.932 52.894 182.766 53.6516 186.735 53.5909L186.735 63.4091Z" fill="#301902"/>
<path d="M232.735 63.4091C227.705 63.5 223.659 62.6819 220.599 60.9546C217.538 59.2273 215.311 56.9849 213.917 54.2273C212.523 51.4394 211.826 48.5 211.826 45.4091C211.826 42.3182 212.508 39.5 213.872 36.9546C215.205 34.3788 217.311 31.4394 220.19 28.1364C222.129 25.894 223.493 24.1061 224.281 22.7728C225.069 21.4091 225.462 19.9243 225.462 18.3182C225.462 15.7122 224.523 13.6516 222.644 12.1364C220.735 10.6213 217.978 9.89398 214.372 9.95459L214.372 0.136403C219.402 0.0454955 223.447 0.863677 226.508 2.59095C229.569 4.28792 231.796 6.53034 233.19 9.31822C234.584 12.1061 235.281 15.0455 235.281 18.1364C235.281 21.2273 234.614 24.0455 233.281 26.5909C231.917 29.1364 229.796 32.0758 226.917 35.4091C224.978 37.6213 223.614 39.4091 222.826 40.7728C222.038 42.1364 221.644 43.6213 221.644 45.2273C221.644 47.6819 222.508 49.7122 224.235 51.3182C225.932 52.894 228.766 53.6516 232.735 53.5909L232.735 63.4091Z" fill="#301902"/>
<path d="M239.372 268.455H117.872L90.3716 89.9546H273.872L239.372 268.455Z" fill="#301902" stroke="black"/>
</svg>
